<svg xmlns="http://www.w3.org/2000/svg" viewBox="0 0 900 680" role="img" aria-label="prato sofisticado em restaurante">
  <defs>
    <linearGradient id="g" x1="0" x2="1" y1="0" y2="1">
      <stop offset="0" stop-color="#fff7ed"/>
      <stop offset="1" stop-color="#dc2626" stop-opacity=".55"/>
    </linearGradient>
    <filter id="shadow" x="-20%" y="-20%" width="140%" height="140%">
      <feDropShadow dx="0" dy="24" stdDeviation="24" flood-color="#1c1917" flood-opacity=".18"/>
    </filter>
  </defs>
  <rect width="900" height="680" rx="42" fill="url(#g)"/>
  <circle cx="730" cy="130" r="86" fill="#facc15" opacity=".22"/>
  <circle cx="128" cy="556" r="104" fill="#7f1d1d" opacity=".16"/>
  <rect x="122" y="120" width="656" height="420" rx="38" fill="#fff" filter="url(#shadow)"/>
  <rect x="170" y="174" width="286" height="34" rx="17" fill="#7f1d1d" opacity=".9"/>
  <rect x="170" y="238" width="500" height="22" rx="11" fill="#1c1917" opacity=".16"/>
  <rect x="170" y="286" width="420" height="22" rx="11" fill="#1c1917" opacity=".12"/>
  <rect x="170" y="374" width="150" height="112" rx="24" fill="#fff7ed"/>
  <rect x="374" y="374" width="150" height="112" rx="24" fill="#fff7ed"/>
  <rect x="578" y="374" width="150" height="112" rx="24" fill="#fff7ed"/>
  <path d="M214 437h62M418 437h62M622 437h62" stroke="#dc2626" stroke-width="18" stroke-linecap="round"/>
  <path d="M662 180c38 46 50 98 33 157-20 69-82 106-131 112" fill="none" stroke="#facc15" stroke-width="18" stroke-linecap="round" opacity=".72"/>
  <text x="450" y="616" text-anchor="middle" font-family="Arial, sans-serif" font-size="34" font-weight="700" fill="#1c1917">Restaurante</text>
</svg>