<svg xmlns="http://www.w3.org/2000/svg" viewBox="0 0 900 680" role="img" aria-label="dashboard tecnológico moderno">
  <defs>
    <linearGradient id="g" x1="0" x2="1" y1="0" y2="1">
      <stop offset="0" stop-color="#eff6ff"/>
      <stop offset="1" stop-color="#2563eb" stop-opacity=".55"/>
    </linearGradient>
    <filter id="shadow" x="-20%" y="-20%" width="140%" height="140%">
      <feDropShadow dx="0" dy="24" stdDeviation="24" flood-color="#020617" flood-opacity=".18"/>
    </filter>
  </defs>
  <rect width="900" height="680" rx="42" fill="url(#g)"/>
  <circle cx="730" cy="130" r="86" fill="#06b6d4" opacity=".22"/>
  <circle cx="128" cy="556" r="104" fill="#111827" opacity=".16"/>
  <rect x="122" y="120" width="656" height="420" rx="38" fill="#fff" filter="url(#shadow)"/>
  <rect x="170" y="174" width="286" height="34" rx="17" fill="#111827" opacity=".9"/>
  <rect x="170" y="238" width="500" height="22" rx="11" fill="#020617" opacity=".16"/>
  <rect x="170" y="286" width="420" height="22" rx="11" fill="#020617" opacity=".12"/>
  <rect x="170" y="374" width="150" height="112" rx="24" fill="#eff6ff"/>
  <rect x="374" y="374" width="150" height="112" rx="24" fill="#eff6ff"/>
  <rect x="578" y="374" width="150" height="112" rx="24" fill="#eff6ff"/>
  <path d="M214 437h62M418 437h62M622 437h62" stroke="#2563eb" stroke-width="18" stroke-linecap="round"/>
  <path d="M662 180c38 46 50 98 33 157-20 69-82 106-131 112" fill="none" stroke="#06b6d4" stroke-width="18" stroke-linecap="round" opacity=".72"/>
  <text x="450" y="616" text-anchor="middle" font-family="Arial, sans-serif" font-size="34" font-weight="700" fill="#020617">Escritório de Tecnologia</text>
</svg>